<?xml version="1.0" standalone="no"?><!DOCTYPE svg PUBLIC "-//W3C//DTD SVG 1.1//EN" "http://www.w3.org/Graphics/SVG/1.1/DTD/svg11.dtd"><svg t="1517828920874" class="icon" style="" viewBox="0 0 1024 1024" version="1.1" xmlns="http://www.w3.org/2000/svg" p-id="5656" xmlns:xlink="http://www.w3.org/1999/xlink" width="128" height="128"><defs><style type="text/css"></style></defs><path d="M460.58398437 856.97070313c-10.1953125 0-16.61132813-2.72460938-20.12695312-9.75585938-3.515625-7.11914063-1.84570313-46.7578125-1.84570313-57.91992188v-178.41796874c0-25.6640625 1.58203125-30.9375 28.125-30.93750001h178.50585938c60.90820313 0 53.0859375-5.71289063 53.0859375 66.97265626v177.53906249c0 25.92773438-0.3515625 32.51953125-27.59765625 32.43164063h-58.88671875c-11.953125-70.13671875-109.42382813-70.13671875-121.37695313 0-9.93164063 0-19.95117188 0-29.88281249 0.08789063zM732.78125 856.61914063c13.7109375-64.59960938 88.2421875-67.41210938 114.16992188-21.18164063 4.5703125 8.0859375 4.13085938 13.359375 7.47070312 21.18164062 39.375 4.5703125 34.27734375-13.18359375 34.27734375-45.3515625 0-19.86328125 2.63671875-60.1171875-4.04296875-75.93749999-6.94335938-16.69921875-28.65234375-43.06640625-40.51757813-58.88671875-2.90039063-3.8671875-5.9765625-8.34960938-8.70117187-11.51367188-6.24023438-7.20703125-10.63476563-15.20507813-24.9609375-15.73242187l-79.98046875 0.26367187c-12.56835938 1.7578125-14.94140625 11.33789063-14.94140625 24.69726563v160.04882812c0 12.65625 4.13085938 22.41210938 17.2265625 22.41210938z m126.65039063-103.62304688c-25.22460938 0.26367188-67.76367188 0.703125-91.93359376-0.08789063v-68.99414062c11.25-0.703125 29.1796875-0.79101563 40.34179688-0.17578125 8.4375 0.43945313 13.97460938 11.51367188 20.21484375 20.21484375 7.29492188 10.1953125 31.02539063 39.81445313 31.37695312 49.04296875z" p-id="5657" fill="#bfbfbf"></path><path d="M590.046875 856.70703125c5.625 24.08203125-11.42578125 43.68164063-30.05859375 47.8125-24.16992188 5.44921875-43.15429688-11.07421875-47.63671875-29.79492188-5.9765625-24.78515625 10.98632813-43.2421875 29.8828125-48.07617187 24.16992188-6.06445313 43.41796875 11.51367188 47.8125 30.05859375zM833.15234375 861.54101563c2.19726563 23.46679688-15.02929688 41.8359375-35.859375 43.68164062-23.37890625 2.19726563-41.74804688-15.20507813-43.50585938-36.38671875-2.02148438-23.73046875 15.46875-40.86914063 36.65039063-42.97851563 22.5-2.19726563 40.78125 15.46875 42.71484375 35.68359375zM130.11523437 303.43554687v601.61132813h137.37304688V413.29882812h482.51953125v98.08593751h137.37304688V305.19335937c0-7.3828125-14.32617188-11.33789063-20.12695313-13.97460937l-35.68359375-16.875c-5.00976563-2.19726563-7.47070313-4.04296875-12.48046875-6.24023437-9.22851563-4.13085938-15.20507813-7.11914063-24.43359375-11.16210938-43.68164063-19.42382813-99.4921875-48.8671875-142.91015625-67.5L519.3828125 126.77539062c-23.5546875-11.42578125-18.19335938-11.51367188-36.2109375-3.42773437l-118.4765625 59.85351563c-7.99804688 4.04296875-15.64453125 7.20703125-24.08203125 11.6015625L151.91210937 289.54882812c-5.09765625 2.63671875-21.796875 7.20703125-21.79687499 13.88671876z" p-id="5658" fill="#bfbfbf"></path><path d="M308.09375 689.80273438h84.55078125v73.12499999H308.09375v-73.125zM308.09375 592.24414063h84.55078125v71.54296874H308.09375v-71.54296875z" p-id="5659" fill="#bfbfbf"></path></svg>