<?xml version="1.0" standalone="no"?><!DOCTYPE svg PUBLIC "-//W3C//DTD SVG 1.1//EN" "http://www.w3.org/Graphics/SVG/1.1/DTD/svg11.dtd"><svg t="1517828793714" class="icon" style="" viewBox="0 0 1024 1024" version="1.1" xmlns="http://www.w3.org/2000/svg" p-id="5347" xmlns:xlink="http://www.w3.org/1999/xlink" width="128" height="128"><defs><style type="text/css"></style></defs><path d="M857.67382813 860.20178222c-12.15032959-70.90548706-110.61859131-70.90548706-122.76809693 0h-59.50497437c-27.43588257 0-27.93603516-6.6395874-27.93603515-32.82220459V647.73580932c0-73.53643799-7.89202881-67.64831543 53.61602783-67.64831542h180.52212525c26.80801391 0 28.43701172 5.26107788 28.43701172 31.19403076v180.52130127c0 11.27526855 1.62982178 51.3616333-1.87866211 58.50302124-3.50683594 7.14138794-10.02035523 9.89758301-20.29284669 9.89758301h-30.19125366z m-245.03439331-0.25048828c-13.90621948-65.3939209-89.19607544-68.14929199-115.50476075-21.42169189-4.63485718 8.14334107-4.25830078 13.52966309-7.51629639 21.42169189-39.83752442 4.63568115-34.7008667-13.27835083-34.70086669-45.85006714 0-20.04318237-2.62930297-60.75576782 4.13470459-76.79443359 7.01531982-16.91207886 29.0640564-43.59567261 40.96472168-59.50497436 3.00668335-3.88421631 6.0133667-8.39465332 8.76956176-11.65182495 6.38909912-7.2658081 10.77264404-15.28308106 25.30673218-15.91012574l80.92831421 0.25131226c12.65377807 1.75424195 15.15866089 11.52493286 15.03341675 24.9293518v161.85498047c0 12.77819825-4.25994873 22.54806518-17.41305542 22.67495728z m-35.20184326-104.85488891v-69.7782898c-11.39968872-0.62704468-29.44061279-0.75146484-40.83947755-0.12606811-8.51824951 0.50097656-14.15670776 11.65182495-20.41973877 20.41973877-7.39187622 10.27331543-31.3192749 40.21325683-31.69418334 49.6090393 25.55474854 0.12606812 68.52502442 0.62704468 92.95422362-0.12606811z" p-id="5348" fill="#bfbfbf"></path><path d="M542.64608765 829.63397217c-19.16729737 4.88616943-36.3298645 23.55084229-30.19125367 48.60543823 4.63568115 18.91598511 23.6769104 35.57922364 48.22970581 30.06600952 18.91598511-4.25912476 36.07937622-24.05264282 30.44174195-48.35659789-4.51043701-18.78991699-24.05264282-36.58035278-48.48184205-30.31649781z m251.0510559-0.75064087c-21.4216919 2.12997437-39.21047974 19.41860962-37.08132934 43.46960449 1.87783813 21.4216919 20.41973877 38.96081542 43.97058105 36.83084106 21.04595948-2.00473023 38.45901489-20.54498291 36.20544434-44.22189331-1.87783813-20.54498291-20.41973877-38.33459472-43.09387207-36.07937622zM125.85583496 300.47418213V908.93328857h138.92871093V411.59292602h488.06982422v99.2189026h138.92871094v-208.58093263c0-7.51712036-14.53161622-11.39968872-20.29367065-14.15670776L835.41003418 270.91162109c-5.0105896-2.25439453-7.51712036-4.00863648-12.52770996-6.26303101-9.39495849-4.13470459-15.28308106-7.14056396-24.67886352-11.27526855-44.22189331-19.66827393-100.59494018-49.35855102-144.56716919-68.27453613l-134.04336549-63.26477051c-23.80380249-11.52493286-18.41665649-11.65182495-36.58035277-3.50765991l-119.88830567 60.50857544c-8.01644898 4.13470459-15.78405761 7.2658081-24.30230713 11.77542114L147.90292359 286.4460144c-5.13583374 2.62930297-22.0479126 7.2658081-22.0479126 14.03063966z" p-id="5349" fill="#bfbfbf"></path><path d="M305.87615967 691.20623779h85.43792725v73.91052247h-85.43792725z m0-98.71627807h85.43792725v72.40841674h-85.43792725z" p-id="5350" fill="#bfbfbf"></path></svg>